HIERARCHY
ROOT hip
{
  OFFSET 0.0 0.0 0.0
  CHANNELS 6 Xposition Yposition Zposition Zrotation Yrotation Xrotation
  JOINT torso
  {
    OFFSET 0.0 0.0 0.0
    CHANNELS 3 Zrotation Xrotation Yrotation
    JOINT neck
    {
      OFFSET -20.11218299999996 327.95800799999995 66.30578600000035
      CHANNELS 3 Zrotation Xrotation Yrotation
      JOINT head
      {
        OFFSET 18.28939800000012 288.83178699999996 217.81652800000006
        CHANNELS 3 Zrotation Xrotation Yrotation
        End Site
        {
          OFFSET 0.0 0.0 0.0
        }
      }
    }
    JOINT left_collar
    {
      OFFSET -20.11218299999996 327.95800799999995 66.30578600000035
      CHANNELS 3 Zrotation Xrotation Yrotation
      JOINT left_upper_arm
      {
        OFFSET -127.08163400000001 -16.17407199999991 15.44799799999987
        CHANNELS 3 Zrotation Xrotation Yrotation
        JOINT left_forearm
        {
          OFFSET -234.267792 45.78796399999999 109.31286600000021
          CHANNELS 3 Zrotation Xrotation Yrotation
          JOINT left_hand
          {
            OFFSET -259.114014 -33.25433399999997 16.18847699999992
            CHANNELS 3 Zrotation Xrotation Yrotation
            End Site
            {
              OFFSET 0.0 0.0 0.0
            }
          }
        }
      }
    }
    JOINT right_collar
    {
      OFFSET -20.11218299999996 327.95800799999995 66.30578600000035
      CHANNELS 3 Zrotation Xrotation Yrotation
      JOINT right_upper_arm
      {
        OFFSET 164.513184 1.5733030000000099 4.892333999999892
        CHANNELS 3 Zrotation Xrotation Yrotation
        JOINT right_forearm
        {
          OFFSET 260.742027 48.718444999999974 144.35229500000014
          CHANNELS 3 Zrotation Xrotation Yrotation
          JOINT right_hand
          {
            OFFSET 287.85150899999996 -44.57171600000015 13.96813899999961
            CHANNELS 3 Zrotation Xrotation Yrotation
            End Site
            {
              OFFSET 0.0 0.0 0.0
            }
          }
        }
      }
    }
  }
}
MOTION
Frames: 9
Frame Time: 0.01
-869.2217932547907 179.43130412215234 975.171854671506 18.699346488222353 -38.7232190741348 -47.80132607146227 0.44815392666206666 1.7346368606307108 0.022637616363263596 -6.644701286339076 12.592901175380595 3.8118788464767372 0.0 0.0 0.0 1.8996542811312358 -0.7492478675193968 6.832641917282089 -2.613065217700183 -22.899564041779136 -62.82162815758592 -14.507715735409105 -0.8969065296214619 0.5568473938822678 0.0 0.0 0.0 3.26534834251391 0.07222291938108812 -4.448345850318295 -20.796538942604474 39.907752104280746 108.37233987810558 10.101082029740214 0.7164188165390097 18.08544762831344 0.0 0.0 0.0
-869.0894005864765 179.3962933202988 974.1853958263351 18.738904228143934 -38.7929261414602 -47.77612271098797 0.4510309200582503 1.7447772049150108 0.02276227860969591 -6.651502263086809 12.580533912673348 3.818019119626017 0.0 0.0 0.0 1.8817745803517396 -0.7550773611506258 6.865892467916612 -2.726780242212385 -23.028932588755715 -62.74888631029752 -14.49667545368117 -0.8962994888668055 0.5839251516396439 0.0 0.0 0.0 3.2706545810228165 0.07314356803932447 -4.471230791105509 -20.71307273883277 39.77606870394425 108.58418522792812 10.220037946193223 0.6923646298587462 18.097514109040215 0.0 0.0 0.0
-868.9646144528833 179.36436839260446 973.2242152528438 18.771041994155294 -38.85586977845731 -47.745902015331524 0.45366360486388424 1.7541446074734557 0.022882587713729575 -6.657718038894024 12.56988804786162 3.823561451182283 0.0 0.0 0.0 1.8712254524630418 -0.7607541661301115 6.901240133126691 -2.8356938702481056 -23.155977060536763 -62.68516922174897 -14.488585147676854 -0.8958592085550465 0.6054767734316528 0.0 0.0 0.0 3.2713562130060874 0.07391152357187103 -4.491202946311401 -20.6447562525391 39.671964033940796 108.76106651838337 10.320865043668348 0.6723614002762227 18.11384375987119 0.0 0.0 0.0
-868.847850645839 179.33477659449977 972.2912788892626 18.79590685086976 -38.91222339069019 -47.710909284819785 0.4559989635054485 1.7628698476894369 0.023016941766349726 -6.663179209831901 12.56100584439031 3.828381058262994 0.0 0.0 0.0 1.8678872615087938 -0.7663753655046699 6.939271297433411 -2.939480232695095 -23.28086603936058 -62.63146738902309 -14.483537031182715 -0.8955883464291757 0.621939219123051 0.0 0.0 0.0 3.2680327397874103 0.07455039652959627 -4.508800338589037 -20.59035572361277 39.59384440864025 108.90536961490791 10.404216446316122 0.6562211921981622 18.133728333494346 0.0 0.0 0.0
-868.7394601967377 179.3068856118036 971.3893335243126 18.813619886654923 -38.962128376736345 -47.67134171350391 0.4580161831963439 1.7710150383816974 0.023173206869836697 -6.6677306070362174 12.553867358496786 3.8323698721726287 0.0 0.0 0.0 1.8715142626991428 -0.7720183817885096 6.980377013678947 -3.037802498646568 -23.40361767270268 -62.588534425222164 -14.48157201298677 -0.8954875265610047 0.633728175045513 0.0 0.0 0.0 3.261257020641482 0.0750822346858289 -4.5244989155687785 -20.548733762092855 39.53996681731589 109.01934975653668 10.470837290417089 0.6437448271730833 18.156496382748198 0.0 0.0 0.0
-868.6397189548904 179.28019410130833 970.5207875092277 18.824287991301034 -39.005704738033586 -47.62735148338597 0.4597238131103257 1.7785813520731453 0.02334976028061454 -6.671236102057619 12.548400201235658 3.8354389250748273 0.0 0.0 0.0 1.8817168648685816 -0.7777375068585992 7.024721292273956 -3.1303188126535257 -23.52408665035379 -62.55685501699383 -14.482670742805999 -0.8955547799139887 0.6412398702049379 0.0 0.0 0.0 3.2515860968686696 0.07552711500317583 -4.538711054718 -20.518837332019938 39.508465342467495 109.10514296241082 10.521565667174025 0.634720873259949 18.18152440947975 0.0 0.0 0.0
-868.5488167962212 179.25433732012957 969.6875890253898 18.828018167686615 -39.04306378310305 -47.57905254313034 0.4611563599785836 1.7855198920415023 0.023536845024860927 -6.673582811489966 12.544490063880717 3.837520226231666 0.0 0.0 0.0 1.8979446431829397 -0.7835608771695599 7.072215027766668 -3.2166873913374507 -23.641953180773267 -62.53661920454377 -14.486746093355883 -0.8957850439312665 0.644855077489335 0.0 0.0 0.0 3.2395537101894103 0.07590291436847955 -4.5517865264776525 -20.499683837439733 39.497373386237 109.1647844776588 10.557333798732417 0.6289245428390903 18.208245449964704 0.0 0.0 0.0
-868.4668469890735 179.22908769740712 968.8911055219129 18.824933715342777 -39.07432215359782 -47.52653064263803 0.46237039092711346 1.791744950745187 0.023718173228594958 -6.674684592303316 12.541991722259446 3.8385680793778003 0.0 0.0 0.0 1.919471236554774 -0.7894880017214309 7.122496892105864 -3.2965709754718335 -23.75671497845978 -62.52770398005413 -14.493637417986662 -0.8961697383136457 0.6449450238765381 0.0 0.0 0.0 3.2256646541821383 0.07622523744863985 -4.564015582304067 -20.490345757774136 39.50464190227773 109.20023311711853 10.579169129424528 0.6261166068318668 18.236155100200214 0.0 0.0 0.0
-868.3937963645086 179.20435037892642 968.1320084454883 18.815191516743553 -39.099616331706166 -47.46985607246347 0.4634402094675624 1.797148807609343 0.023872709234187 -6.674484754743622 12.54074027432958 3.8385598146747335 0.0 0.0 0.0 1.9453823557486498 -0.7954879838380595 7.1749224739392945 -3.369640846382125 -23.86768330616499 -62.5296631308048 -14.503106922521935 -0.896696435060489 0.6418788451426871 0.0 0.0 0.0 3.210391006586255 0.07650747318639936 -4.575633723546232 -20.489934342680048 39.52815419549965 109.2134000508021 10.588194928248235 0.6260424406194632 18.264815066449845 0.0 0.0 0.0
